<svg width="66" height="41" viewBox="0 0 66 41" fill="none" xmlns="http://www.w3.org/2000/svg">
<path d="M0.0398439 40.165V38.79L1.13984 38.68C2.42318 38.5333 3.39484 38.35 4.05484 38.13C4.75151 37.8733 5.22818 37.36 5.48484 36.59C5.74151 35.7833 5.86984 34.4817 5.86984 32.685V8.265C5.86984 6.43167 5.74151 5.13 5.48484 4.36C5.22818 3.59 4.75151 3.095 4.05484 2.875C3.39484 2.61833 2.42318 2.41666 1.13984 2.27L0.0398439 2.16V0.784997L8.17984 0.949998H15.6598C17.8598 0.949998 19.9132 1.09666 21.8198 1.39C23.7265 1.64666 25.3948 2.16 26.8248 2.93C28.2548 3.66333 29.3732 4.745 30.1798 6.175C30.9865 7.605 31.3898 9.45667 31.3898 11.73C31.3898 14.9933 30.1615 17.6333 27.7048 19.65C25.2482 21.6667 21.6732 22.675 16.9798 22.675H10.5448V32.685C10.5448 34.4817 10.6915 35.7833 10.9848 36.59C11.3148 37.36 11.8832 37.8733 12.6898 38.13C13.4965 38.35 14.6332 38.5333 16.0998 38.68L17.3098 38.79V40.165L8.01484 40L0.0398439 40.165ZM17.8048 2.49H10.5448V21.025H16.9798C19.5098 21.025 21.4348 20.6583 22.7548 19.925C24.0748 19.1917 24.9732 18.1283 25.4498 16.735C25.9265 15.3417 26.1648 13.6733 26.1648 11.73C26.1648 9.64 25.8898 7.99 25.3398 6.78C24.8265 5.53333 24.1298 4.59833 23.2498 3.975C22.4065 3.35166 21.4898 2.94833 20.4998 2.765C19.5465 2.58166 18.6482 2.49 17.8048 2.49ZM34.952 40.165V38.79L36.052 38.68C37.3353 38.5333 38.307 38.35 38.967 38.13C39.6636 37.8733 40.1403 37.36 40.397 36.59C40.6536 35.7833 40.782 34.4817 40.782 32.685V8.265C40.782 6.43167 40.6536 5.13 40.397 4.36C40.1403 3.59 39.6636 3.095 38.967 2.875C38.307 2.61833 37.3353 2.41666 36.052 2.27L34.952 2.16V0.784997L43.092 0.949998H65.202L65.367 4.965L65.862 9.86H64.542C64.3953 8.02666 63.9553 6.615 63.222 5.625C62.5253 4.59833 61.6636 3.88333 60.637 3.48C59.6103 3.04 58.547 2.78333 57.447 2.71C56.3836 2.6 55.3936 2.545 54.477 2.545H45.457V18.66H51.617C52.3503 18.66 52.992 18.495 53.542 18.165C54.092 17.7983 54.532 17.1383 54.862 16.185C55.2286 15.2317 55.4486 13.8567 55.522 12.06H56.897L56.732 19.43L56.897 27.57H55.522C55.522 24.8933 55.192 23.005 54.532 21.905C53.872 20.7683 52.9003 20.2 51.617 20.2H45.457V32.685C45.457 34.4817 45.6036 35.8017 45.897 36.645C46.1903 37.4517 46.6853 37.9833 47.382 38.24C48.0786 38.46 49.0136 38.6067 50.187 38.68L52.057 38.79V40.165L43.147 40H43.092L34.952 40.165Z" fill="black"/>
</svg>
